<mxfile host="app.diagrams.net" modified="2021-06-16T04:34:59.214Z" agent="5.0 (Macintosh; Intel Mac OS X 10_15_7) AppleWebKit/605.1.15 (KHTML, like Gecko) Version/14.1 Safari/605.1.15" etag="VGMPe1od1XOmaBGB7P-j" version="14.7.9" type="github">
  <diagram id="C5RBs43oDa-KdzZeNtuy" name="Page-1">
    <mxGraphModel dx="2088" dy="732" grid="1" gridSize="10" guides="1" tooltips="1" connect="1" arrows="1" fold="1" page="1" pageScale="1" pageWidth="827" pageHeight="1169" math="0" shadow="0">
      <root>
        <mxCell id="WIyWlLk6GJQsqaUBKTNV-0" />
        <mxCell id="WIyWlLk6GJQsqaUBKTNV-1" parent="WIyWlLk6GJQsqaUBKTNV-0" />
        <mxCell id="LIU_eeTFHJBmdomvcPOO-3" value="Start Application" style="rounded=1;whiteSpace=wrap;html=1;fillColor=#d5e8d4;strokeColor=#82b366;" parent="WIyWlLk6GJQsqaUBKTNV-1" vertex="1">
          <mxGeometry x="155" width="110" height="40" as="geometry" />
        </mxCell>
        <mxCell id="LIU_eeTFHJBmdomvcPOO-6" value="" style="shape=singleArrow;direction=south;whiteSpace=wrap;html=1;" parent="WIyWlLk6GJQsqaUBKTNV-1" vertex="1">
          <mxGeometry x="205" y="40" width="10" height="50" as="geometry" />
        </mxCell>
        <mxCell id="LIU_eeTFHJBmdomvcPOO-7" value="Load app &amp;amp; request age (birth month &amp;amp; year)" style="rounded=0;whiteSpace=wrap;html=1;fillColor=#ffe6cc;strokeColor=#d79b00;" parent="WIyWlLk6GJQsqaUBKTNV-1" vertex="1">
          <mxGeometry x="160" y="90" width="110" height="40" as="geometry" />
        </mxCell>
        <mxCell id="LIU_eeTFHJBmdomvcPOO-9" value="" style="shape=singleArrow;direction=south;whiteSpace=wrap;html=1;" parent="WIyWlLk6GJQsqaUBKTNV-1" vertex="1">
          <mxGeometry x="205" y="130" width="10" height="30" as="geometry" />
        </mxCell>
        <mxCell id="LIU_eeTFHJBmdomvcPOO-19" value="" style="edgeStyle=orthogonalEdgeStyle;rounded=0;orthogonalLoop=1;jettySize=auto;html=1;" parent="WIyWlLk6GJQsqaUBKTNV-1" source="LIU_eeTFHJBmdomvcPOO-10" edge="1">
          <mxGeometry relative="1" as="geometry">
            <mxPoint x="110" y="200" as="targetPoint" />
          </mxGeometry>
        </mxCell>
        <mxCell id="LIU_eeTFHJBmdomvcPOO-10" value="Age &amp;gt; 16?" style="rhombus;whiteSpace=wrap;html=1;fillColor=#fff2cc;strokeColor=#d6b656;" parent="WIyWlLk6GJQsqaUBKTNV-1" vertex="1">
          <mxGeometry x="170" y="160" width="80" height="80" as="geometry" />
        </mxCell>
        <mxCell id="LIU_eeTFHJBmdomvcPOO-20" value="End &amp;nbsp;Process" style="ellipse;whiteSpace=wrap;html=1;fillColor=#f8cecc;strokeColor=#b85450;" parent="WIyWlLk6GJQsqaUBKTNV-1" vertex="1">
          <mxGeometry x="30" y="160" width="80" height="70" as="geometry" />
        </mxCell>
        <mxCell id="LIU_eeTFHJBmdomvcPOO-21" value="No" style="text;html=1;align=center;verticalAlign=middle;resizable=0;points=[];autosize=1;strokeColor=none;" parent="WIyWlLk6GJQsqaUBKTNV-1" vertex="1">
          <mxGeometry x="130" y="170" width="30" height="20" as="geometry" />
        </mxCell>
        <mxCell id="LIU_eeTFHJBmdomvcPOO-22" value="" style="shape=singleArrow;direction=south;whiteSpace=wrap;html=1;" parent="WIyWlLk6GJQsqaUBKTNV-1" vertex="1">
          <mxGeometry x="205" y="240" width="10" height="40" as="geometry" />
        </mxCell>
        <mxCell id="LIU_eeTFHJBmdomvcPOO-23" value="Get First &amp;amp; Last Name" style="rounded=0;whiteSpace=wrap;html=1;fillColor=#ffe6cc;strokeColor=#d79b00;" parent="WIyWlLk6GJQsqaUBKTNV-1" vertex="1">
          <mxGeometry x="165" y="280" width="90" height="40" as="geometry" />
        </mxCell>
        <mxCell id="LIU_eeTFHJBmdomvcPOO-24" value="" style="shape=singleArrow;direction=south;whiteSpace=wrap;html=1;" parent="WIyWlLk6GJQsqaUBKTNV-1" vertex="1">
          <mxGeometry x="202.5" y="320" width="15" height="50" as="geometry" />
        </mxCell>
        <mxCell id="LIU_eeTFHJBmdomvcPOO-29" value="Valid Name? Enter max of 30 upper &amp;amp; lower case letters." style="rhombus;whiteSpace=wrap;html=1;fillColor=#fff2cc;strokeColor=#d6b656;" parent="WIyWlLk6GJQsqaUBKTNV-1" vertex="1">
          <mxGeometry x="93.75" y="370" width="232.5" height="160" as="geometry" />
        </mxCell>
        <mxCell id="LIU_eeTFHJBmdomvcPOO-33" value="" style="edgeStyle=orthogonalEdgeStyle;rounded=0;orthogonalLoop=1;jettySize=auto;html=1;" parent="WIyWlLk6GJQsqaUBKTNV-1" edge="1">
          <mxGeometry relative="1" as="geometry">
            <mxPoint x="53.75" y="449.5" as="sourcePoint" />
            <mxPoint x="-26.25" y="449.5" as="targetPoint" />
            <Array as="points">
              <mxPoint x="93.75" y="450" />
              <mxPoint x="93.75" y="450" />
            </Array>
          </mxGeometry>
        </mxCell>
        <mxCell id="LIU_eeTFHJBmdomvcPOO-38" value="" style="edgeStyle=elbowEdgeStyle;elbow=horizontal;endArrow=classic;html=1;" parent="WIyWlLk6GJQsqaUBKTNV-1" edge="1">
          <mxGeometry width="50" height="50" relative="1" as="geometry">
            <mxPoint x="-110" y="420" as="sourcePoint" />
            <mxPoint x="160" y="300" as="targetPoint" />
          </mxGeometry>
        </mxCell>
        <mxCell id="LIU_eeTFHJBmdomvcPOO-39" value="No" style="text;html=1;strokeColor=none;fillColor=none;align=center;verticalAlign=middle;whiteSpace=wrap;rounded=0;" parent="WIyWlLk6GJQsqaUBKTNV-1" vertex="1">
          <mxGeometry x="40" y="420" width="40" height="20" as="geometry" />
        </mxCell>
        <mxCell id="LIU_eeTFHJBmdomvcPOO-40" value="Yes" style="text;html=1;strokeColor=none;fillColor=none;align=center;verticalAlign=middle;whiteSpace=wrap;rounded=0;" parent="WIyWlLk6GJQsqaUBKTNV-1" vertex="1">
          <mxGeometry x="160" y="250" width="40" height="20" as="geometry" />
        </mxCell>
        <mxCell id="LIU_eeTFHJBmdomvcPOO-42" value="" style="shape=singleArrow;direction=south;whiteSpace=wrap;html=1;fillColor=#FFFFFF;" parent="WIyWlLk6GJQsqaUBKTNV-1" vertex="1">
          <mxGeometry x="200" y="530" width="20" height="50" as="geometry" />
        </mxCell>
        <mxCell id="LIU_eeTFHJBmdomvcPOO-44" value="Get email address" style="rounded=0;whiteSpace=wrap;html=1;fillColor=#ffe6cc;strokeColor=#d79b00;" parent="WIyWlLk6GJQsqaUBKTNV-1" vertex="1">
          <mxGeometry x="150" y="580" width="120" height="60" as="geometry" />
        </mxCell>
        <mxCell id="LIU_eeTFHJBmdomvcPOO-45" value="" style="shape=singleArrow;direction=south;whiteSpace=wrap;html=1;" parent="WIyWlLk6GJQsqaUBKTNV-1" vertex="1">
          <mxGeometry x="195" y="640" width="30" height="50" as="geometry" />
        </mxCell>
        <mxCell id="LIU_eeTFHJBmdomvcPOO-47" value="A" style="ellipse;whiteSpace=wrap;html=1;aspect=fixed;fillColor=#e1d5e7;strokeColor=#9673a6;" parent="WIyWlLk6GJQsqaUBKTNV-1" vertex="1">
          <mxGeometry x="182.5" y="690" width="55" height="55" as="geometry" />
        </mxCell>
        <mxCell id="Hr4Jce8pEfpJEN-zW1CK-0" value="A" style="ellipse;whiteSpace=wrap;html=1;aspect=fixed;fillColor=#e1d5e7;strokeColor=#9673a6;" vertex="1" parent="WIyWlLk6GJQsqaUBKTNV-1">
          <mxGeometry x="180" y="800" width="60" height="60" as="geometry" />
        </mxCell>
        <mxCell id="Hr4Jce8pEfpJEN-zW1CK-1" value="" style="html=1;shadow=0;dashed=0;align=center;verticalAlign=middle;shape=mxgraph.arrows2.arrow;dy=0.6;dx=40;direction=south;notch=0;" vertex="1" parent="WIyWlLk6GJQsqaUBKTNV-1">
          <mxGeometry x="202.5" y="860" width="15" height="60" as="geometry" />
        </mxCell>
        <mxCell id="Hr4Jce8pEfpJEN-zW1CK-3" value="Get Phone Number&lt;br&gt;" style="rounded=0;whiteSpace=wrap;html=1;fillColor=#ffe6cc;strokeColor=#d79b00;" vertex="1" parent="WIyWlLk6GJQsqaUBKTNV-1">
          <mxGeometry x="150" y="920" width="120" height="60" as="geometry" />
        </mxCell>
        <mxCell id="Hr4Jce8pEfpJEN-zW1CK-5" value="" style="shape=singleArrow;direction=south;whiteSpace=wrap;html=1;fillColor=#FFFFFF;arrowWidth=0.2000000000000091;arrowSize=0.16190476190476083;" vertex="1" parent="WIyWlLk6GJQsqaUBKTNV-1">
          <mxGeometry x="197.5" y="980" width="25" height="70" as="geometry" />
        </mxCell>
        <mxCell id="Hr4Jce8pEfpJEN-zW1CK-6" value="Required 10 digit format (###)-###-#####&lt;br&gt;provided?" style="rhombus;whiteSpace=wrap;html=1;fillColor=#fff2cc;strokeColor=#d6b656;" vertex="1" parent="WIyWlLk6GJQsqaUBKTNV-1">
          <mxGeometry x="85" y="1050" width="250" height="240" as="geometry" />
        </mxCell>
        <mxCell id="Hr4Jce8pEfpJEN-zW1CK-7" value="Please Enter A Valid Phone Number" style="shape=parallelogram;perimeter=parallelogramPerimeter;whiteSpace=wrap;html=1;fixedSize=1;fillColor=#f8cecc;strokeColor=#b85450;" vertex="1" parent="WIyWlLk6GJQsqaUBKTNV-1">
          <mxGeometry x="-180" y="1120" width="190" height="100" as="geometry" />
        </mxCell>
        <mxCell id="Hr4Jce8pEfpJEN-zW1CK-8" value="" style="shape=singleArrow;direction=west;whiteSpace=wrap;html=1;fillColor=#FFFFFF;" vertex="1" parent="WIyWlLk6GJQsqaUBKTNV-1">
          <mxGeometry x="16" y="1155" width="64" height="30" as="geometry" />
        </mxCell>
        <mxCell id="Hr4Jce8pEfpJEN-zW1CK-11" value="" style="html=1;shadow=0;dashed=0;align=center;verticalAlign=middle;shape=mxgraph.arrows2.bendArrow;dy=15;dx=38;notch=0;arrowHead=55;rounded=0;fillColor=#FFFFFF;" vertex="1" parent="WIyWlLk6GJQsqaUBKTNV-1">
          <mxGeometry x="-110" y="930" width="250" height="190" as="geometry" />
        </mxCell>
        <mxCell id="Hr4Jce8pEfpJEN-zW1CK-12" value="&lt;span&gt;Do not enter numbers, symbols or over 30 characters.&lt;/span&gt;" style="shape=parallelogram;perimeter=parallelogramPerimeter;whiteSpace=wrap;html=1;fixedSize=1;fillColor=#f8cecc;strokeColor=#b85450;" vertex="1" parent="WIyWlLk6GJQsqaUBKTNV-1">
          <mxGeometry x="-280" y="420" width="260" height="80" as="geometry" />
        </mxCell>
        <mxCell id="Hr4Jce8pEfpJEN-zW1CK-13" value="" style="shape=singleArrow;direction=south;whiteSpace=wrap;html=1;fillColor=#FFFFFF;" vertex="1" parent="WIyWlLk6GJQsqaUBKTNV-1">
          <mxGeometry x="191.5" y="1290" width="37" height="80" as="geometry" />
        </mxCell>
        <mxCell id="Hr4Jce8pEfpJEN-zW1CK-14" value="No" style="text;html=1;strokeColor=none;fillColor=none;align=center;verticalAlign=middle;whiteSpace=wrap;rounded=0;" vertex="1" parent="WIyWlLk6GJQsqaUBKTNV-1">
          <mxGeometry x="40" y="1135" width="40" height="20" as="geometry" />
        </mxCell>
        <mxCell id="Hr4Jce8pEfpJEN-zW1CK-15" value="Yes" style="text;html=1;strokeColor=none;fillColor=none;align=center;verticalAlign=middle;whiteSpace=wrap;rounded=0;" vertex="1" parent="WIyWlLk6GJQsqaUBKTNV-1">
          <mxGeometry x="157.5" y="1310" width="40" height="20" as="geometry" />
        </mxCell>
        <mxCell id="Hr4Jce8pEfpJEN-zW1CK-16" value="Get Gender&amp;nbsp;" style="rounded=0;whiteSpace=wrap;html=1;fillColor=#ffe6cc;strokeColor=#d79b00;" vertex="1" parent="WIyWlLk6GJQsqaUBKTNV-1">
          <mxGeometry x="150" y="1370" width="120" height="60" as="geometry" />
        </mxCell>
      </root>
    </mxGraphModel>
  </diagram>
</mxfile>
